<?xml version="1.0" encoding="utf-8"?>
<!-- Generator: Adobe Illustrator 25.0.0, SVG Export Plug-In . SVG Version: 6.00 Build 0)  -->
<svg version="1.1" id="icon" xmlns="http://www.w3.org/2000/svg" xmlns:xlink="http://www.w3.org/1999/xlink" x="0px" y="0px"
	 viewBox="0 0 32 32" style="enable-background:new 0 0 32 32;" xml:space="preserve">
<style type="text/css">
	.st0{fill:none;}
</style>
<path d="M16,2C8.3,2,2,8.3,2,16s6.3,14,14,14s14-6.3,14-14S23.7,2,16,2z M16,28C9.4,28,4,22.6,4,16S9.4,4,16,4s12,5.4,12,12
	S22.6,28,16,28z"/>
<path d="M11.5,11C10.1,11,9,12.1,9,13.5s1.1,2.5,2.5,2.5s2.5-1.1,2.5-2.5C14,12.1,12.9,11,11.5,11C11.5,11,11.5,11,11.5,11z"/>
<path d="M20.5,11c-1.4,0-2.5,1.1-2.5,2.5s1.1,2.5,2.5,2.5s2.5-1.1,2.5-2.5C23,12.1,21.9,11,20.5,11C20.5,11,20.5,11,20.5,11z"/>
<path d="M23,24c-0.7-1.2-1.7-2.2-2.9-2.9c-3.9-2.3-8.9-1-11.1,2.9H23z"/>
<rect id="_Transparent_Rectangle_" y="0" class="st0" width="32" height="32"/>
</svg>
