<?xml version="1.0" encoding="utf-8"?>
<!-- Generator: Adobe Illustrator 25.0.0, SVG Export Plug-In . SVG Version: 6.00 Build 0)  -->
<svg version="1.1" id="icon" xmlns="http://www.w3.org/2000/svg" xmlns:xlink="http://www.w3.org/1999/xlink" x="0px" y="0px"
	 viewBox="0 0 32 32" style="enable-background:new 0 0 32 32;" xml:space="preserve">
<style type="text/css">
	.st0{fill:none;}
</style>
<rect id="_Transparent_Rectangle_" x="2.2" y="1.5" class="st0" width="32" height="32"/>
<g>
	<path d="M11.1,9.9v12l0,0V9.9 M12.1,8.9h-5v2h3v10h-3v2h8v-2h-3V8.9z"/>
	<g>
		<path d="M23.5,22.4h-4c-1.1,0-2-0.9-2-2v-10c0-1.1,0.9-2,2-2h4c1.1,0,2,0.9,2,2v10C25.5,21.5,24.6,22.4,23.5,22.4z M19.5,10.4
			L19.5,10.4v10h4v-10H19.5z"/>
		<rect x="20.5" y="14.4" width="2" height="2"/>
	</g>
</g>
<rect id="_Transparent_Rectangle__1_" x="4.7" y="1.1" class="st0" width="32" height="32"/>
</svg>
